<!DOCTYPE svg PUBLIC "-//W3C//DTD SVG 1.1//EN" "http://www.w3.org/Graphics/SVG/1.1/DTD/svg11.dtd">
<!-- Uploaded to: SVG Repo, www.svgrepo.com, Transformed by: SVG Repo Mixer Tools -->
<svg width="800px" height="800px" viewBox="0 0 1024 1024" class="icon" version="1.1" xmlns="http://www.w3.org/2000/svg" fill="#090b5d" stroke="#090b5d">
<g id="SVGRepo_bgCarrier" stroke-width="0"/>
<g id="SVGRepo_tracerCarrier" stroke-linecap="round" stroke-linejoin="round"/>
<g id="SVGRepo_iconCarrier">
<path d="M512 64l100.266667 76.8 123.733333-17.066667 46.933333 117.333334 117.333334 46.933333-17.066667 123.733333L960 512l-76.8 100.266667 17.066667 123.733333-117.333334 46.933333-46.933333 117.333334-123.733333-17.066667L512 960l-100.266667-76.8-123.733333 17.066667-46.933333-117.333334-117.333334-46.933333 17.066667-123.733333L64 512l76.8-100.266667-17.066667-123.733333 117.333334-46.933333 46.933333-117.333334 123.733333 17.066667z" fill="#4b59c3"/>
<path d="M738.133333 311.466667L448 601.6l-119.466667-119.466667-59.733333 59.733334 179.2 179.2 349.866667-349.866667z" fill="#8fe9ff"/>
</g>
</svg>