<?xml version="1.0" encoding="UTF-8"?>
<svg version="1.1" xmlns="http://www.w3.org/2000/svg" width="512" height="512">
<path d="M0 0 C9.90829905 9.46587241 19.80645761 18.98109816 28 30 C28.47034668 30.61568848 28.94069336 31.23137695 29.42529297 31.86572266 C56.55283204 67.44268483 73.53875684 109.58055656 79 154 C79.14465698 155.145896 79.14465698 155.145896 79.29223633 156.31494141 C80.06639145 163.09406623 80.11634217 169.80775231 80.0625 176.625 C80.05798828 177.72457031 80.05347656 178.82414063 80.04882812 179.95703125 C80.03717154 182.6380449 80.01924141 185.31903006 80 188 C74.72 188 69.44 188 64 188 C63.90203125 186.01742187 63.8040625 184.03484375 63.703125 181.9921875 C62.53827883 160.41550677 59.63030213 139.90399409 54 119 C51.70507968 119.65040369 49.4227296 120.3279044 47.14453125 121.03515625 C44.88305353 121.72905066 42.60740929 122.3773758 40.32421875 122.99609375 C39.08285156 123.36863281 37.84148437 123.74117187 36.5625 124.125 C35.38816406 124.45757812 34.21382813 124.79015625 33.00390625 125.1328125 C28.53713201 127.90929896 28.17061546 131.04670169 27 136 C26.71552002 137.10230957 26.43104004 138.20461914 26.13793945 139.34033203 C25.02316078 143.7037349 23.96120404 148.07903776 22.90136719 152.45605469 C22.44485718 154.33596858 21.98421789 156.21487825 21.5234375 158.09375 C21.1200415 159.75954102 21.1200415 159.75954102 20.70849609 161.45898438 C20 164 20 164 19 165 C17.37211212 165.15234714 15.73794347 165.2382114 14.10400391 165.29711914 C13.05846344 165.33708511 12.01292297 165.37705109 10.93569946 165.41822815 C9.79418427 165.45681442 8.65266907 165.4954007 7.4765625 165.53515625 C6.30547943 165.57813339 5.13439636 165.62111053 3.92782593 165.66539001 C1.43780478 165.7558285 -1.05230191 165.84393641 -3.54248047 165.92993164 C-7.32409846 166.0607393 -11.10540261 166.19865707 -14.88671875 166.33789062 C-17.30727643 166.42490414 -19.72784897 166.51150531 -22.1484375 166.59765625 C-23.26971039 166.63826675 -24.39098328 166.67887726 -25.54623413 166.72071838 C-27.6779922 166.79358154 -29.81007075 166.85773361 -31.94238281 166.91201782 C-33.99945384 166.97120953 -36.05584885 167.06094544 -38.11035156 167.17953491 C-45.37480645 167.47714158 -45.37480645 167.47714158 -48.38769531 165.17773438 C-48.86303711 164.32501953 -49.33837891 163.47230469 -49.828125 162.59375 C-50.39313721 161.63299561 -50.95814941 160.67224121 -51.5402832 159.68237305 C-52.10448975 158.63218994 -52.66869629 157.58200684 -53.25 156.5 C-54.51834148 154.30790492 -55.78791086 152.11651992 -57.05859375 149.92578125 C-57.70038574 148.78834473 -58.34217773 147.6509082 -59.00341797 146.47900391 C-62.24974527 140.76550794 -65.80224132 135.24129755 -69.3125 129.6875 C-70.55942165 127.69192332 -71.80558007 125.69586942 -73.05078125 123.69921875 C-75.64965372 118.61610389 -75.64965372 118.61610389 -79.83930969 115.48306274 C-80.58367783 115.41598114 -81.32804596 115.34889954 -82.0949707 115.27978516 C-83.36187492 115.15417709 -83.36187492 115.15417709 -84.65437317 115.02603149 C-86.02622017 114.90873184 -86.02622017 114.90873184 -87.42578125 114.7890625 C-89.35616222 114.59416981 -91.28649947 114.39884365 -93.21679688 114.203125 C-96.2642478 113.91053044 -99.31212091 113.62503437 -102.36108398 113.34863281 C-105.30152075 113.07692187 -108.23828502 112.77819422 -111.17578125 112.4765625 C-112.53851921 112.36533554 -112.53851921 112.36533554 -113.92878723 112.25186157 C-118.32924712 111.78792336 -120.45915749 111.44201422 -123.96875 108.57373047 C-124.6390625 107.72439941 -125.309375 106.87506836 -126 106 C-126.76699219 105.1234375 -127.53398437 104.246875 -128.32421875 103.34375 C-133.43085236 97.19890824 -138.39328888 90.96790461 -143.23828125 84.61328125 C-146.44446392 80.40878038 -149.69016768 76.23525612 -152.9375 72.0625 C-153.52772949 71.30388672 -154.11795898 70.54527344 -154.72607422 69.76367188 C-160.12877883 62.82518059 -165.55815143 55.90781594 -171 49 C-168.363417 43.52028142 -165.48393033 38.43788835 -162.125 33.375 C-161.15663878 31.89773369 -160.18924202 30.41983486 -159.22265625 28.94140625 C-158.70719238 28.1539502 -158.19172852 27.36649414 -157.66064453 26.55517578 C-153.98319572 20.89681365 -150.38489233 15.18747672 -146.77197266 9.48779297 C-145.66435969 7.74281897 -144.54462848 6.00545682 -143.41088867 4.27734375 C-141.83883709 1.86224117 -141.83883709 1.86224117 -140.4609375 -1.54296875 C-136.0726766 -5.92426415 -129.9946178 -5.29472965 -124.0625 -5.625 C-122.59957655 -5.72755316 -121.13685007 -5.83294837 -119.67431641 -5.94091797 C-116.36621773 -6.18081428 -113.05747339 -6.40384525 -109.74755859 -6.6171875 C-99.64402208 -7.27725653 -89.55061435 -8.08358013 -79.45504761 -8.85418701 C-75.9131702 -9.12211261 -72.37088183 -9.38368667 -68.82836914 -9.64306641 C-67.70863205 -9.72560669 -66.58889496 -9.80814697 -65.43522644 -9.89318848 C-63.32972038 -10.0481643 -61.22410507 -10.20166614 -59.11836243 -10.35339355 C-53.71798175 -10.75311491 -48.3667158 -11.27528302 -43 -12 C-76.62473286 -32.70343814 -112.42005123 -46.98599576 -152 -51 C-153.010625 -51.11085938 -154.02125 -51.22171875 -155.0625 -51.3359375 C-217.36746427 -57.21676321 -280.49569206 -36.60985537 -328.59765625 2.89453125 C-331.18129304 5.15888934 -333.59714501 7.54574705 -336 10 C-334.77410156 10.37769531 -333.54820312 10.75539063 -332.28515625 11.14453125 C-326.1264905 13.19741983 -320.3124191 15.94344594 -314.4375 18.6875 C-310.663125 20.440625 -306.88875 22.19375 -303 24 C-302.67 33.24 -302.34 42.48 -302 52 C-299.174375 52.66 -296.34875 53.32 -293.4375 54 C-280.52571209 58.06198588 -275.79210407 68.61855154 -269.71240234 79.89257812 C-267.13906767 84.56229637 -264.2657093 89.02249116 -261.375 93.5 C-260.00764035 95.65479671 -258.64473248 97.81066885 -257.30761719 99.984375 C-256.02274414 102.03493581 -256.02274414 102.03493581 -254.45019531 103.953125 C-252.43711594 106.62122225 -250.92461044 108.64442536 -251.11523438 112.07202148 C-251.8909227 114.80962362 -252.92198652 117.36536152 -254 120 C-254.50556338 121.38213748 -255.00473537 122.76662221 -255.49902344 124.15283203 C-256.92980835 128.14733276 -258.41925717 132.11662723 -259.93310547 136.08032227 C-260.56593741 137.74802636 -261.1901715 139.41901614 -261.80615234 141.09301758 C-262.70316995 143.52937046 -263.62572882 145.95458184 -264.5546875 148.37890625 C-264.82570282 149.12983047 -265.09671814 149.8807547 -265.37594604 150.6544342 C-267.34244066 155.66396435 -267.34244066 155.66396435 -270.20141602 157.125 C-274.09851179 156.95093448 -277.5567327 155.85455146 -281.22265625 154.62109375 C-282.82874294 154.1073184 -284.43486377 153.59364973 -286.04101562 153.08007812 C-288.55947303 152.25897582 -291.07624203 151.43297061 -293.59204102 150.60375977 C-296.02761387 149.80551887 -298.46839589 149.02516207 -300.91015625 148.24609375 C-301.66128189 147.99202255 -302.41240753 147.73795135 -303.18629456 147.47618103 C-307.23062467 146.15732019 -307.23062467 146.15732019 -311.34619141 146.71459961 C-313.86782732 148.67450707 -316.07186617 150.84950482 -318.3125 153.125 C-318.79525391 153.61419922 -319.27800781 154.10339844 -319.77539062 154.60742188 C-323.16980479 158.07434689 -326.42495613 161.64144823 -329.5625 165.34375 C-330.2740625 166.16359375 -330.2740625 166.16359375 -331 167 C-331.44453522 167.52180847 -331.88907043 168.04361694 -332.34707642 168.58123779 C-335.26815003 171.08849759 -339.16173134 170.38122731 -342.8359375 170.328125 C-343.73138779 170.32661438 -344.62683807 170.32510376 -345.54942322 170.32354736 C-348.49157553 170.31413404 -351.43301975 170.28253989 -354.375 170.25 C-356.39997883 170.23807046 -358.42496296 170.22700966 -360.44995117 170.21679688 C-378.97349084 170.09780728 -397.48728477 169.62190285 -416 169 C-416 175.27 -416 181.54 -416 188 C-421.28 188 -426.56 188 -432 188 C-432.98702489 148.48244782 -424.30805341 110.52407029 -407 75 C-406.60941406 74.19820312 -406.21882813 73.39640625 -405.81640625 72.5703125 C-395.70463554 52.08154432 -382.85830157 33.19965724 -367.28125 16.46875 C-365.38769392 14.41955918 -363.5940214 12.3325972 -361.8125 10.1875 C-352.19012164 -0.83531841 -340.7217005 -10.30573818 -329 -19 C-328.34805664 -19.48710449 -327.69611328 -19.97420898 -327.02441406 -20.47607422 C-316.50737912 -28.28235218 -305.64359115 -35.00759779 -294 -41 C-293.26088379 -41.3825293 -292.52176758 -41.76505859 -291.76025391 -42.15917969 C-204.07827155 -86.98418091 -94.61443773 -74.24722622 0 0 Z M-33.09521484 3.23510742 C-34.10882584 3.29663498 -35.12243683 3.35816254 -36.16676331 3.42155457 C-39.51633506 3.6308662 -42.86338721 3.86609844 -46.2109375 4.10546875 C-48.54114027 4.26527302 -50.87135075 4.42496482 -53.2015686 4.58454895 C-58.0865623 4.92428494 -62.97020157 5.27930187 -67.85351562 5.64233398 C-74.10434481 6.10381959 -80.3574818 6.50602761 -86.6132412 6.8940382 C-91.42848785 7.2029557 -96.23998247 7.55415237 -101.05144119 7.91695595 C-103.35559056 8.08353763 -105.66092414 8.23451525 -107.96714401 8.36943626 C-120.09821742 8.59018844 -120.09821742 8.59018844 -130.86433411 13.19293213 C-132.68063863 15.74211364 -133.86269438 18.09409676 -135 21 C-135.71663818 22.08071777 -136.43327637 23.16143555 -137.17163086 24.27490234 C-139.10295934 27.30244709 -141.02376073 30.33630507 -142.9375 33.375 C-143.96327148 34.97408203 -143.96327148 34.97408203 -145.00976562 36.60546875 C-145.65494141 37.63027344 -146.30011719 38.65507812 -146.96484375 39.7109375 C-147.84064087 41.09224854 -147.84064087 41.09224854 -148.73413086 42.50146484 C-150.30129938 45.12787732 -150.30129938 45.12787732 -150 49 C-148.90575304 50.95910497 -148.90575304 50.95910497 -147.32421875 52.8359375 C-146.74905518 53.56329102 -146.1738916 54.29064453 -145.58129883 55.04003906 C-144.95634521 55.81057617 -144.3313916 56.58111328 -143.6875 57.375 C-143.05030029 58.17647461 -142.41310059 58.97794922 -141.7565918 59.80371094 C-140.45706782 61.43758399 -139.15376691 63.06846023 -137.84667969 64.69628906 C-135.75846088 67.30131718 -133.69495904 69.92456087 -131.64038086 72.55615234 C-130.75654092 73.68358046 -129.8667235 74.80634854 -128.97094727 75.92431641 C-126.63446095 78.84781017 -124.42799439 81.80474452 -122.33203125 84.90625 C-121.87852295 85.54916992 -121.42501465 86.19208984 -120.95776367 86.85449219 C-120.10463117 88.06785008 -119.27984162 89.30195554 -118.4934082 90.55957031 C-115.63302562 94.53731702 -112.97908388 95.52049805 -108.1796875 96.33984375 C-103.79997811 96.83859408 -99.43663619 97.08826725 -95.03257751 97.25349426 C-71.8293564 98.13647071 -71.8293564 98.13647071 -65.41162109 102.93554688 C-61.230782 107.74648591 -58.73956341 113.31296372 -56.28613281 119.14746094 C-54.18912754 123.79844986 -51.37234411 127.94287843 -48.5625 132.1875 C-47.62198585 133.65740343 -46.68562982 135.12997759 -45.75390625 136.60546875 C-45.31062988 137.30720215 -44.86735352 138.00893555 -44.41064453 138.73193359 C-41.88720452 142.78917792 -39.44261347 146.89373985 -37 151 C-32.98376766 150.87955176 -28.96767352 150.75523072 -24.95166016 150.62768555 C-22.93267694 150.56431046 -20.91360466 150.50379288 -18.89453125 150.44335938 C-10.23946219 150.16622662 -1.63187331 149.68580393 7 149 C8.14384489 144.49877262 9.2830497 139.99640612 10.41796875 135.49291992 C10.80471497 133.96102204 11.19272764 132.42944332 11.58203125 130.89819336 C12.14135594 128.69727922 12.69611752 126.49525789 13.25 124.29296875 C13.42499023 123.60849167 13.59998047 122.92401459 13.78027344 122.21879578 C14.48741106 119.39124571 15 116.92845999 15 114 C16.21558594 113.76539063 17.43117188 113.53078125 18.68359375 113.2890625 C25.00687453 111.88388899 30.99582143 109.61543525 37.0625 107.375 C38.21427734 106.95476562 39.36605469 106.53453125 40.55273438 106.1015625 C43.37036794 105.07271705 46.18601184 104.03876545 49 103 C45.35392236 92.91869281 40.9885644 83.47577694 36 74 C35.65984863 73.34628418 35.31969727 72.69256836 34.96923828 72.01904297 C23.7333221 50.58806744 8.52247801 32.4144089 -8.4375 15.3125 C-9.3025415 14.43803223 -10.16758301 13.56356445 -11.05883789 12.66259766 C-11.88375732 11.84194824 -12.70867676 11.02129883 -13.55859375 10.17578125 C-14.29392334 9.44270752 -15.02925293 8.70963379 -15.78686523 7.9543457 C-21.63564212 2.78948537 -25.56148803 2.68259192 -33.09521484 3.23510742 Z M-351.75390625 23.2578125 C-366.77789952 38.76854421 -378.88756944 56.99373163 -389 76 C-389.33596191 76.61746094 -389.67192383 77.23492187 -390.01806641 77.87109375 C-402.4426973 100.79396225 -411.43979647 127.01072033 -414 153 C-407.45746282 153.30318188 -400.91429533 153.58842383 -394.37036133 153.85980225 C-392.17154673 153.95126688 -389.97281056 154.04464267 -387.77416992 154.14019775 C-381.35216381 154.41400135 -374.93357786 154.61386312 -368.50683594 154.73461914 C-366.31346567 154.7870693 -364.12054183 154.86272951 -361.92871094 154.96020508 C-348.94149011 156.07892258 -348.94149011 156.07892258 -337.29589844 151.5456543 C-334.39416434 148.66377984 -332.23268512 145.41464801 -330 142 C-328.73690134 140.54676239 -327.44362624 139.11866593 -326.109375 137.73046875 C-325.54476562 137.13298828 -324.98015625 136.53550781 -324.3984375 135.91992188 C-323.85445313 135.34822266 -323.31046875 134.77652344 -322.75 134.1875 C-322.19054687 133.56552734 -321.63109375 132.94355469 -321.0546875 132.30273438 C-320.49523437 131.72201172 -319.93578125 131.14128906 -319.359375 130.54296875 C-318.87952148 130.02758545 -318.39966797 129.51220215 -317.90527344 128.98120117 C-313.14742398 126.53094528 -306.55471811 129.60349791 -301.75390625 131.06640625 C-301.09792953 131.26475571 -300.44195282 131.46310516 -299.76609802 131.66746521 C-297.69674499 132.2943674 -295.62962613 132.92829827 -293.5625 133.5625 C-292.14923099 133.99200546 -290.73582069 134.4210463 -289.32226562 134.84960938 C-285.87986191 135.89437768 -282.43942319 136.94545537 -279 138 C-274.91218034 129.11455057 -274.91218034 129.11455057 -271.0625 120.125 C-270.62035156 119.07570313 -270.17820312 118.02640625 -269.72265625 116.9453125 C-268.69837827 112.77068766 -270.20566442 110.41114453 -272.26171875 106.75854492 C-272.73222656 106.00677979 -273.20273437 105.25501465 -273.6875 104.48046875 C-274.21529053 103.63057373 -274.74308105 102.78067871 -275.28686523 101.9050293 C-276.45094125 100.05846665 -277.6199055 98.2149784 -278.79321289 96.37426758 C-281.50173621 92.10681337 -284.12230154 87.90506477 -286.30859375 83.34375 C-290.9247611 74.08913548 -295.56580806 70.44062744 -305.4375 67 C-312.08924122 64.76526796 -312.08924122 64.76526796 -319 64 C-319 54.43 -319 44.86 -319 35 C-330.07569786 29.3996792 -330.07569786 29.3996792 -341.25 24 C-342.08015625 23.608125 -342.9103125 23.21625 -343.765625 22.8125 C-346.77740677 21.71730663 -349.05393147 21.32152769 -351.75390625 23.2578125 Z " fill="#223C91" transform="translate(432,323)"/>
<path d="M0 0 C7.77361023 4.45798436 12.084909 10.78235411 15.1484375 19.12890625 C16.25086771 24.14041238 16.29124441 28.88569368 16.25 34 C16.26160156 35.43859375 16.26160156 35.43859375 16.2734375 36.90625 C16.25853639 42.3302543 15.79409045 46.8740273 14 52 C14.556875 52.40089844 15.11375 52.80179688 15.6875 53.21484375 C29.68692626 63.6434704 38.00570006 76.73874154 41 94 C41 99.28 41 104.56 41 110 C2.72 110 -35.56 110 -75 110 C-75 90.70915344 -72.78161544 74.61156536 -58.8125 60.375 C-51.03322259 53 -51.03322259 53 -48 53 C-48.32226562 51.90300781 -48.64453125 50.80601562 -48.9765625 49.67578125 C-51.85615614 38.08860222 -52.01959885 22.51548675 -46 12 C-45.5875 11.26910156 -45.175 10.53820312 -44.75 9.78515625 C-35.16721448 -4.83403643 -14.80200375 -8.25198815 0 0 Z M-29 16 C-35.05020184 23.80157605 -34.87871432 32.51642891 -34 42 C-32.59630262 47.38592581 -29.70622129 51.01556699 -25 54 C-20.40852256 56.67836184 -16.01440649 56.21373443 -11 55 C-5.27385098 52.08290522 -2.03019337 48.0905801 0 42 C0.14880933 39.21554845 0.23107 36.47257615 0.25 33.6875 C0.270625 32.94048828 0.29125 32.19347656 0.3125 31.42382812 C0.35693791 25.09698098 -1.16743347 21.06751095 -5.4375 16.25 C-10.02449393 12.22239557 -13.45879218 11.54597301 -19.46484375 11.6875 C-23.58166683 12.19496664 -25.67927017 13.47624533 -29 16 Z M-38 65 C-47.6913774 71.83450878 -54.63348581 79.41584557 -58 91 C-58 91.99 -58 92.98 -58 94 C-30.94 94 -3.88 94 24 94 C21.46484197 82.59178886 16.90574493 73.66209904 7 67 C4.62828557 65.57621241 4.62828557 65.57621241 2 65 C-0.57387044 65.79940714 -0.57387044 65.79940714 -3 67.3125 C-9.51466952 71.02789746 -16.11751634 72.10965538 -23.4921875 70.43359375 C-28.49989622 68.97998833 -33.25948583 67.16414777 -38 65 Z " fill="#223C91" transform="translate(431,145)"/>
<path d="M0 0 C7.77361023 4.45798436 12.084909 10.78235411 15.1484375 19.12890625 C16.25086771 24.14041238 16.29124441 28.88569368 16.25 34 C16.26160156 35.43859375 16.26160156 35.43859375 16.2734375 36.90625 C16.25853639 42.3302543 15.79409045 46.8740273 14 52 C14.56847656 52.42410156 15.13695312 52.84820312 15.72265625 53.28515625 C18.18063653 55.15223643 20.59500694 57.06521391 23 59 C23.61875 59.48210937 24.2375 59.96421875 24.875 60.4609375 C34.42326087 68.81566576 39.11938061 82.89351265 41 95 C41 99.95 41 104.9 41 110 C2.72 110 -35.56 110 -75 110 C-75 90.70915344 -72.78161544 74.61156536 -58.8125 60.375 C-51.03322259 53 -51.03322259 53 -48 53 C-48.32226562 51.90300781 -48.64453125 50.80601562 -48.9765625 49.67578125 C-51.85615614 38.08860222 -52.01959885 22.51548675 -46 12 C-45.5875 11.26910156 -45.175 10.53820312 -44.75 9.78515625 C-35.16721448 -4.83403643 -14.80200375 -8.25198815 0 0 Z M-29 16 C-35.05020184 23.80157605 -34.87871432 32.51642891 -34 42 C-32.59630262 47.38592581 -29.70622129 51.01556699 -25 54 C-20.40852256 56.67836184 -16.01440649 56.21373443 -11 55 C-5.27385098 52.08290522 -2.03019337 48.0905801 0 42 C0.14880933 39.21554845 0.23107 36.47257615 0.25 33.6875 C0.270625 32.94048828 0.29125 32.19347656 0.3125 31.42382812 C0.35693791 25.09698098 -1.16743347 21.06751095 -5.4375 16.25 C-10.02449393 12.22239557 -13.45879218 11.54597301 -19.46484375 11.6875 C-23.58166683 12.19496664 -25.67927017 13.47624533 -29 16 Z M-38 65 C-47.6913774 71.83450878 -54.63348581 79.41584557 -58 91 C-58 91.99 -58 92.98 -58 94 C-30.94 94 -3.88 94 24 94 C21.46484197 82.59178886 16.90574493 73.66209904 7 67 C4.62828557 65.57621241 4.62828557 65.57621241 2 65 C-0.57387044 65.79940714 -0.57387044 65.79940714 -3 67.3125 C-9.51466952 71.02789746 -16.11751634 72.10965538 -23.4921875 70.43359375 C-28.49989622 68.97998833 -33.25948583 67.16414777 -38 65 Z " fill="#223C91" transform="translate(116,145)"/>
<path d="M0 0 C7.40922384 5.26851712 13.14830474 11.91310555 15 21 C15.22690591 25.2887124 15.18515349 29.58088981 15.1875 33.875 C15.19974609 35.04675781 15.21199219 36.21851563 15.22460938 37.42578125 C15.22654297 38.56144531 15.22847656 39.69710937 15.23046875 40.8671875 C15.23457764 41.89956543 15.23868652 42.93194336 15.24291992 43.99560547 C14.97893837 47.26048691 14.1510463 49.94403907 13 53 C13.73476563 53.2578125 14.46953125 53.515625 15.2265625 53.78125 C25.62509607 58.35074644 32.56483372 69.08226476 36.8125 79.1875 C39.8630809 87.71503143 41.59120115 96.68872681 40.51025391 105.73144531 C40.36881454 106.93429169 40.36881454 106.93429169 40.22451782 108.16143799 C40.1133815 109.07152618 40.1133815 109.07152618 40 110 C25.02313694 110.02332977 10.04627528 110.04097956 -4.93060207 110.05181217 C-11.88416081 110.05697496 -18.83770827 110.06401734 -25.79125977 110.07543945 C-32.49557209 110.08644694 -39.19987025 110.09227621 -45.90419197 110.09487724 C-48.46837613 110.09673202 -51.03255962 110.10035364 -53.59673882 110.10573006 C-57.17445158 110.11293659 -60.75211519 110.11399111 -64.32983398 110.11352539 C-65.40157364 110.11712067 -66.47331329 110.12071594 -67.57752991 110.12442017 C-68.54653229 110.1230455 -69.51553467 110.12167084 -70.51390076 110.12025452 C-71.78459239 110.12163721 -71.78459239 110.12163721 -73.08095455 110.12304783 C-75 110 -75 110 -76 109 C-76.10143119 90.41780688 -72.03180936 73.85226547 -59.02734375 59.94921875 C-51.7995992 53 -51.7995992 53 -48 53 C-48.32162109 52.1352002 -48.64324219 51.27040039 -48.97460938 50.37939453 C-50.62990842 44.92400182 -50.45062683 39.54057079 -50.5 33.875 C-50.54125 32.71484375 -50.5825 31.5546875 -50.625 30.359375 C-50.71154509 20.68796135 -48.29866892 12.87246661 -41.81982422 5.52880859 C-30.77941481 -5.29282413 -13.54013384 -8.24484993 0 0 Z M-31.3125 18.25 C-35.55683787 25.16669876 -36.09439065 33.61354602 -34.5 41.4609375 C-32.59839331 47.96529673 -29.68514751 51.45087643 -23.75 54.875 C-17.78507033 56.6644789 -13.25908234 56.10822907 -7.6875 53.375 C-3.30800003 49.50474421 -0.55133295 44.9268292 0 39 C0.40414875 31.49065558 0.51997497 23.92987881 -4.25 17.6875 C-8.33726139 13.69313092 -11.73691765 11.86253065 -17.4375 11.5625 C-23.38289718 11.7826999 -27.04728591 14.10006197 -31.3125 18.25 Z M-38 65 C-47.76736912 70.86042147 -53.77651279 78.40474663 -58 89 C-58.33 90.65 -58.66 92.3 -59 94 C-31.61 94 -4.22 94 24 94 C20.58288123 82.60960411 15.46551639 71.69561131 4.53515625 65.6328125 C2.02086836 64.74599148 2.02086836 64.74599148 -0.21875 65.86328125 C-0.9715625 66.34152344 -1.724375 66.81976563 -2.5 67.3125 C-10.34682896 71.59258852 -19.32483224 72.05455893 -27.921875 69.74609375 C-31.46735444 68.47318666 -34.6941651 66.80318267 -38 65 Z " fill="#223C91" transform="translate(274,5)"/>
<path d="M0 0 C7.22261975 0.54970421 14.44509679 1.10125558 21.66748047 1.65405273 C24.1212245 1.84164636 26.57500015 2.02882702 29.02880859 2.21557617 C32.56877019 2.48506168 36.10861305 2.75606342 39.6484375 3.02734375 C41.277173 3.1508445 41.277173 3.1508445 42.93881226 3.27684021 C49.30246471 3.76624532 55.65256879 4.33184644 62 5 C64.22180054 14.94619122 65.36448445 25.02266009 66.625 35.125 C66.85644091 36.95837501 67.08820894 38.79170876 67.3203125 40.625 C67.88398387 45.08286617 68.44321537 49.54126867 69 54 C65.90034597 55.5094588 62.79458597 57.00590667 59.6875 58.5 C58.80642578 58.92925781 57.92535156 59.35851562 57.01757812 59.80078125 C56.17001953 60.20683594 55.32246094 60.61289062 54.44921875 61.03125 C53.66893311 61.40830078 52.88864746 61.78535156 52.0847168 62.17382812 C50 63 50 63 47 63 C47.55929199 64.15616821 47.55929199 64.15616821 48.12988281 65.33569336 C49.53254243 68.23700466 50.93391942 71.13893114 52.33447266 74.04125977 C52.93716145 75.2895488 53.54033875 76.53760212 54.14404297 77.78540039 C56.94181482 83.56885414 59.73896611 89.35359523 62.421875 95.19140625 C62.7322168 95.86502197 63.04255859 96.5386377 63.36230469 97.23266602 C64 99 64 99 64 102 C57.20844404 103.83198715 50.38115844 105.02023407 43.4375 106.125 C42.33986328 106.30675781 41.24222656 106.48851562 40.11132812 106.67578125 C37.99966998 107.01435935 35.88378401 107.32782272 33.76416016 107.61230469 C31.55213012 107.92255939 29.35793783 108.35893902 27.17578125 108.8359375 C23.16908276 107.78128378 22.70841962 106.64068328 20.484375 103.21875 C19.21160334 100.98982418 17.97222009 98.75578153 16.75 96.5 C16.06999661 95.29192527 15.3870719 94.08549082 14.70141602 92.88061523 C13.23317564 90.29681276 11.77695038 87.70670819 10.32666016 85.11279297 C6.73051756 78.71648359 2.94293808 72.43273988 -0.82336426 66.13574219 C-2.03162909 64.11415122 -3.23686776 62.09080017 -4.44042969 60.06640625 C-4.82131744 59.42589325 -5.2022052 58.78538025 -5.59463501 58.12545776 C-6.33826057 56.87107371 -7.07935096 55.61518279 -7.81771851 54.35769653 C-9.55448795 51.40326768 -11.32002992 48.4817251 -13.18310547 45.60498047 C-13.8432666 44.55842285 -14.50342773 43.51186523 -15.18359375 42.43359375 C-15.7758374 41.52536865 -16.36808105 40.61714355 -16.97827148 39.68139648 C-18.36425576 36.04405712 -17.56331058 34.50217933 -16 31 C-15.14237066 29.12006722 -14.24766222 27.25669297 -13.3203125 25.41015625 C-12.80339844 24.37826172 -12.28648437 23.34636719 -11.75390625 22.28320312 C-10.94759766 20.68895508 -10.94759766 20.68895508 -10.125 19.0625 C-9.33029297 17.47405273 -9.33029297 17.47405273 -8.51953125 15.85351562 C-5.81621295 10.47706496 -3.01056348 5.20959432 0 0 Z M10 17 C8.51762714 19.60238792 7.03899869 22.20678228 5.5625 24.8125 C5.14162109 25.55048828 4.72074219 26.28847656 4.28710938 27.04882812 C3.68286133 28.11713867 3.68286133 28.11713867 3.06640625 29.20703125 C2.69459229 29.8616333 2.32277832 30.51623535 1.93969727 31.19067383 C0.8645343 33.14536412 0.8645343 33.14536412 0 36 C1.27023655 38.72090724 1.27023655 38.72090724 3.19921875 41.6796875 C3.54574493 42.24051025 3.89227112 42.80133301 4.2492981 43.37915039 C4.99706982 44.58733997 5.7494051 45.79271442 6.50576782 46.99554443 C8.49000102 50.15131713 10.44238792 53.32671099 12.3984375 56.5 C12.79148575 57.13565887 13.184534 57.77131775 13.5894928 58.42623901 C17.64166063 64.99778557 21.46640527 71.69215216 25.24291992 78.42529297 C27.6733598 82.74381021 30.18593221 86.91992969 33 91 C35.64 90.67 38.28 90.34 41 90 C39.694903 85.84359589 38.1328051 81.99564017 36.21484375 78.0859375 C35.41916992 76.45011719 35.41916992 76.45011719 34.60742188 74.78125 C33.49029577 72.50257407 32.37310785 70.22392844 31.25585938 67.9453125 C30.72669922 66.85734375 30.19753906 65.769375 29.65234375 64.6484375 C29.16757568 63.66020996 28.68280762 62.67198242 28.18334961 61.65380859 C27.1836947 59.41195819 26.48615913 57.3956388 26 55 C27.7325 54.505 27.7325 54.505 29.5 54 C37.0232441 51.52445419 43.98211598 47.62518917 51 44 C50.88205919 42.24951008 50.75510056 40.4996282 50.625 38.75 C50.52058594 37.28820312 50.52058594 37.28820312 50.4140625 35.796875 C49.83559782 30.49246305 48.91460372 25.25547848 48 20 C43.23131924 19.57049889 38.46243865 19.14331507 33.69335938 18.71826172 C32.07155777 18.57338855 30.44981222 18.4278863 28.828125 18.28173828 C26.49493694 18.0715798 24.16155553 17.86369672 21.828125 17.65625 C21.10506165 17.59062866 20.38199829 17.52500732 19.63702393 17.45739746 C16.4025346 17.17187462 13.25121437 17 10 17 Z " fill="#223C91" transform="translate(178,303)"/>
<path d="M0 0 C5.28 0 10.56 0 16 0 C16.33 15.18 16.66 30.36 17 46 C21.03605469 47.38574219 25.07210937 48.77148438 29.23046875 50.19921875 C32.48486956 51.31809047 35.73910546 52.43743911 38.99323273 53.55710602 C42.40807262 54.73192617 45.82318458 55.90593962 49.23901367 57.07788086 C52.54007827 58.21048443 55.84031764 59.34546419 59.14003944 60.48197365 C60.98752203 61.11764107 62.83581297 61.75095762 64.68412781 62.38420105 C72.52720774 65.08844727 80.27667561 67.97124043 88 71 C85.1640625 81.828125 85.1640625 81.828125 83 86 C74.87721106 84.44072942 67.22289585 81.7795604 59.4453125 79.02734375 C58.05304627 78.53889809 56.66061778 78.0509147 55.26803589 77.56336975 C51.62792064 76.28761797 47.98997219 75.00579812 44.35247803 73.72259521 C40.64249931 72.41497893 36.93056426 71.11294165 33.21875 69.81054688 C26.70817676 67.52564957 20.19938631 65.23574935 13.69192505 62.94200134 C7.88638461 60.91043405 4.96204354 61.78495707 -0.71484375 63.83203125 C-1.59023804 64.13976974 -2.46563232 64.44750824 -3.36755371 64.76457214 C-6.22722469 65.77221125 -9.08221373 66.79251049 -11.9375 67.8125 C-13.89364559 68.50284919 -15.85010855 69.19229971 -17.80688477 69.88085938 C-26.53519823 72.95843747 -35.24734535 76.07801108 -43.9375 79.26171875 C-45.2370286 79.73535783 -46.53658784 80.20891288 -47.83618164 80.68237305 C-50.18554723 81.54194366 -52.53130804 82.41145093 -54.87280273 83.29223633 C-55.90348877 83.67017334 -56.9341748 84.04811035 -57.99609375 84.4375 C-58.87450928 84.76621094 -59.7529248 85.09492188 -60.65795898 85.43359375 C-63.24056808 86.05817971 -64.56777817 86.05121737 -67 85 C-68.265625 82.34765625 -68.265625 82.34765625 -69.25 79.0625 C-69.58515625 77.98097656 -69.9203125 76.89945312 -70.265625 75.78515625 C-71 73 -71 73 -71 71 C-47.76841669 62.3657733 -24.40598985 54.15174129 -1 46 C-0.67 30.82 -0.34 15.64 0 0 Z " fill="#223C91" transform="translate(250,131)"/>
</svg>
