<?xml version="1.0" encoding="UTF-8"?>
<svg version="1.1" xmlns="http://www.w3.org/2000/svg" width="512" height="512">
<path d="M0 0 C4.73904656 2.77077945 8.09057275 7.06529054 11.625 11.1875 C14.47730779 14.49694967 16.97753323 17.11190335 21 19 C26.29690092 19 30.82244174 17.46641947 35.875 15.9375 C42.79859274 13.9116256 49.17323139 12.20874661 55.9375 15.375 C59.71505234 20.18279389 60.53052074 25.98062414 61.89453125 31.84765625 C62.05687256 32.5130542 62.21921387 33.17845215 62.38647461 33.86401367 C62.85636512 35.79829062 63.29983759 37.73892709 63.7421875 39.6796875 C65.27467743 43.72508018 66.24487072 44.8583278 70 47 C73.6176007 48.2132694 77.28994098 49.11619013 81 50 C92.98990342 52.85623354 92.98990342 52.85623354 97 57 C100.26775026 63.53550052 97.52882501 71.17982187 95.4375 77.6875 C95.06794189 78.7559314 95.06794189 78.7559314 94.69091797 79.84594727 C93.12203954 84.59502936 92.35885387 88.09829864 94 93 C96.543164 96.19050119 99.44681765 98.92032925 102.4375 101.6875 C104.00296618 103.16606683 105.56434222 104.64897923 107.12109375 106.13671875 C107.8164624 106.78342529 108.51183105 107.43013184 109.22827148 108.09643555 C111.55402525 110.59525077 112.80477143 112.64874057 113.29516602 116.04296875 C112.97900948 122.57736639 110.21725115 125.43245153 105.51367188 129.75 C103.79400694 131.25193632 102.07264625 132.75193322 100.34960938 134.25 C95.93467301 138.13048893 95.93467301 138.13048893 93.35180664 143.24780273 C93.15577266 149.49443557 95.38322607 155.4754135 97.31054688 161.33789062 C98.95260217 166.68960323 99.40840843 170.52032185 98 176 C94.08797815 181.97185502 87.99804558 182.63133064 81.4375 184.0625 C79.37073826 184.51936312 77.30674237 184.98896702 75.24609375 185.47265625 C74.33529053 185.67125244 73.4244873 185.86984863 72.48608398 186.07446289 C69.4945065 187.18818873 68.03794664 188.56735449 66 191 C64.76836597 193.86962044 64.76836597 193.86962044 63.9375 197.0625 C63.60492188 198.20847656 63.27234375 199.35445312 62.9296875 200.53515625 C62.34271972 202.72272106 61.78179859 204.91759436 61.2578125 207.12109375 C58.94322776 216.70451482 58.94322776 216.70451482 54 220 C45.96235347 221.87424942 39.70263075 219.45157939 32.04492188 216.91796875 C27.61488511 215.56663938 24.84897704 214.80729287 20.265625 215.84765625 C16.09935105 218.59360954 13.06752721 221.81052207 9.8125 225.5625 C8.61606409 226.92272607 7.41441373 228.27838731 6.20703125 229.62890625 C5.6860083 230.22775635 5.16498535 230.82660645 4.62817383 231.44360352 C1.68283106 234.25910211 -0.72362522 234.95854378 -4.75 235.5625 C-10.38204015 235.37580254 -13.25491045 231.85039962 -17 228 C-17.95828903 227.03902009 -18.91801023 226.07946691 -19.87890625 225.12109375 C-21.36721827 223.63665061 -22.85116775 222.14941224 -24.31958008 220.64526367 C-28.0182432 216.84120642 -28.0182432 216.84120642 -33.0703125 215.77734375 C-38.41585748 216.08022254 -43.09118508 217.64809081 -48.15234375 219.31054688 C-53.55359275 220.95500948 -58.52106724 221.82408697 -64 220 C-69.25581937 215.58709506 -70.26689118 210.47459419 -71.625 203.9375 C-73.05095902 195.89700221 -73.05095902 195.89700221 -77 189 C-83.26038798 186.12049254 -89.95977444 184.60351061 -96.640625 182.98242188 C-101.13510297 181.80945423 -104.0511706 180.82283811 -107 177 C-109.86379163 171.27241674 -108.04287968 164.69286549 -106.16064453 158.92041016 C-105.68728317 157.54059853 -105.1979191 156.16614865 -104.69091797 154.79833984 C-103.03980212 150.12578641 -102.75727763 146.8040425 -104 142 C-105.27148433 139.76949681 -105.27148433 139.76949681 -107.0625 138 C-107.68769531 137.33484375 -108.31289062 136.6696875 -108.95703125 135.984375 C-111.60584298 133.41153301 -114.35361953 130.98861751 -117.203125 128.640625 C-121.03568068 125.14133503 -122.3621694 122.37292714 -123.1796875 117.1953125 C-122.6059703 110.18598501 -117.28020597 106.10198725 -112.375 101.75 C-111.00561537 100.5180629 -109.63831923 99.28379907 -108.2734375 98.046875 C-107.66935059 97.50901367 -107.06526367 96.97115234 -106.44287109 96.41699219 C-104.0267284 94.04418471 -103.82900054 92.21739097 -103.77734375 88.9453125 C-103.84136239 83.12776433 -105.52713626 78.05948689 -107.31054688 72.57421875 C-108.80608119 67.67897684 -109.26704958 64.10659378 -108 59 C-103.49235463 52.60205173 -96.55441622 51.87805967 -89.37890625 50.10546875 C-88.14011719 49.78191406 -86.90132812 49.45835938 -85.625 49.125 C-84.46226562 48.83882812 -83.29953125 48.55265625 -82.1015625 48.2578125 C-78.27393565 46.70555073 -77.08087989 45.56922224 -75 42 C-73.93956003 38.73317254 -73.20934511 35.42088221 -72.5 32.0625 C-69.71101392 18.91579665 -69.71101392 18.91579665 -64.25 14.625 C-57.75750639 12.82152955 -52.06177289 14.30215231 -45.9375 16.5 C-40.82364041 18.32461721 -36.5286878 19.5668739 -31 19 C-28.88559026 17.93504349 -28.88559026 17.93504349 -27.25 16.1875 C-26.59257812 15.55972656 -25.93515625 14.93195312 -25.2578125 14.28515625 C-24.51273437 13.53105469 -23.76765625 12.77695313 -23 12 C-22.03954531 11.03988136 -21.07857823 10.08027511 -20.1171875 9.12109375 C-18.63043122 7.63651392 -17.14824635 6.14881611 -15.68066406 4.64526367 C-10.82279406 -0.30938012 -6.87446339 -1.21135919 0 0 Z M-57.31640625 73.6640625 C-68.5976959 88.52025797 -74.92245722 106.27723026 -72.5625 125.08984375 C-69.6590741 143.89948039 -60.7249181 160.55299134 -45.30078125 172.00390625 C-28.99872077 182.77117302 -11.16728331 187.67792087 8.2734375 183.97070312 C25.31457066 180.26410286 40.60017768 170.76623755 50.6328125 156.28125 C61.04663903 138.90503659 65.60446714 121.18176891 61 101 C55.65998785 83.19303342 45.61445444 67.99176194 29.21875 58.8203125 C-0.16752453 43.14029624 -34.83493445 47.80847436 -57.31640625 73.6640625 Z " fill="#3182FF" transform="translate(261,0)"/>
<path d="M0 0 C2 0.125 2 0.125 4 1 C8.55390138 8.26353648 5.7082883 19.30589834 4.87011719 27.37182617 C4.74974594 28.56838837 4.62937469 29.76495056 4.50535583 30.99777222 C4.17649764 34.25264551 3.84303091 37.50699935 3.50664806 40.76110244 C3.29582813 42.80310878 3.0863817 44.84525143 2.877388 46.88744545 C2.14552122 54.03759129 1.40800072 61.18712969 0.66552734 68.33618164 C-0.02206423 74.95835497 -0.69677579 81.58175542 -1.36553502 88.20585459 C-1.94374672 93.92689576 -2.53145226 99.64691281 -3.1262176 105.36625654 C-3.47969558 108.76702671 -3.82950089 112.16806819 -4.16953278 115.57021141 C-7.45141258 148.19269404 -15.25499247 168.39136101 -39.62109375 190.9140625 C-45.42955832 196.29601799 -51.00455831 201.90610832 -56.55932617 207.54785156 C-57.93185468 208.93131192 -59.32674418 210.29248106 -60.72265625 211.65234375 C-69.46446323 220.66405215 -70.03671478 229.4772921 -71 242 C-87.5 242 -104 242 -121 242 C-123.74312201 203.59629187 -121.54992625 167.91571855 -95.62988281 137.38623047 C-92.21244345 133.46818499 -88.63445611 129.7162707 -85 126 C-84.38366699 125.36852051 -83.76733398 124.73704102 -83.13232422 124.08642578 C-70.59838774 111.29496417 -70.59838774 111.29496417 -64.08203125 105.80078125 C-61.75755232 103.79030322 -59.51911881 101.7015329 -57.27587891 99.60131836 C-41.82285204 85.15896965 -41.82285204 85.15896965 -37.3125 84.765625 C-35 85 -35 85 -34 86 C-33.57230237 89.67819962 -33.80996768 91.64273924 -35.5625 94.9375 C-37.93626748 97.91992581 -40.43441677 100.52285172 -43.1640625 103.171875 C-44.9283072 104.92861228 -46.56306325 106.73906855 -48.1875 108.625 C-51.37825938 112.3271452 -54.67571011 115.91834243 -58 119.5 C-61.79980669 123.59756795 -65.55107748 127.7225353 -69.203125 131.953125 C-72.39207455 135.58575449 -75.68446739 139.12605376 -78.9609375 142.6796875 C-81.54467691 145.61980476 -81.95327917 146.48607091 -82.3125 150.4375 C-82.32997909 153.95169452 -82.32997909 153.95169452 -80.4375 156 C-76.81913806 157.48445618 -74.77784967 157.00196838 -71 156 C-68.326639 153.9376613 -66.19744061 151.4903284 -64 148.9375 C-63.07501709 147.90423584 -63.07501709 147.90423584 -62.13134766 146.85009766 C-60.40407637 144.91407055 -58.69874836 142.96104717 -57 141 C-56.32710938 140.23558594 -55.65421875 139.47117187 -54.9609375 138.68359375 C-53.91123145 137.48651518 -52.8668597 136.28473601 -51.828125 135.078125 C-49.30930348 132.21484926 -46.71658918 129.42236 -44.125 126.625 C-26.05806296 109.56128161 -26.05806296 109.56128161 -18.55859375 87.13671875 C-19.29171995 83.58786892 -21.12178273 80.6553078 -23.00390625 77.58984375 C-25.64121617 70.73283795 -21.28087001 61.58134357 -19.32421875 54.91015625 C-18.95778763 53.65166367 -18.59135651 52.39317108 -18.21382141 51.09654236 C-17.43955882 48.44041522 -16.66155393 45.78541874 -15.88110352 43.13110352 C-14.88755335 39.75025051 -13.90538546 36.36621108 -12.92628765 32.98114872 C-11.98265629 29.72624385 -11.0277868 26.47466383 -10.07421875 23.22265625 C-9.7261467 22.01722672 -9.37807465 20.81179718 -9.01945496 19.56983948 C-4.58399665 4.58399665 -4.58399665 4.58399665 0 0 Z " fill="#18A1FF" transform="translate(439,229)"/>
<path d="M0 0 C3.39484601 1.24532471 4.00802027 2.01319547 5.97729492 5.25317383 C8.74401442 11.25692901 10.5020718 17.6213062 12.36328125 23.94921875 C12.76319966 25.29353841 13.16344864 26.63775978 13.56401062 27.98188782 C14.39683894 30.78339429 15.22388087 33.58653033 16.04711914 36.39086914 C17.10125743 39.97908603 18.17262232 43.56190032 19.24865437 47.14360332 C20.07758213 49.91139224 20.89596851 52.68221449 21.71135521 55.45401955 C22.10211197 56.77672593 22.49644396 58.09838173 22.89446449 59.41892052 C23.4487562 61.2626125 23.98705728 63.11108901 24.5246582 64.9597168 C24.83458206 66.00814255 25.14450592 67.0565683 25.46382141 68.13676453 C26.34762492 72.85634416 25.06372168 76.14388617 22.9375 80.3125 C20.17550838 86.44351437 20.25629205 91.38087282 22.25 97.6875 C25.1590865 104.42705626 30.44046848 109.30137244 35.50878906 114.46435547 C37.59032141 116.60791121 39.57719466 118.82992739 41.5625 121.0625 C44.88935469 124.77577701 48.2493727 128.45618844 51.625 132.125 C54.66110867 135.42733364 57.6785665 138.74205783 60.625 142.125 C61.16382813 142.73730469 61.70265625 143.34960938 62.2578125 143.98046875 C63.58985479 145.52456262 64.89175054 147.09471169 66.1796875 148.67578125 C70.57362718 154.34753859 70.57362718 154.34753859 76.8125 157.3125 C79.94316171 157.15976154 79.94316171 157.15976154 82.4375 156 C84.79926503 152.97694077 84.35092361 150.74975681 84 147 C82.37264502 144.10123891 82.37264502 144.10123891 80 141.5625 C79.17757812 140.61890625 78.35515625 139.6753125 77.5078125 138.703125 C74.70407783 135.68103093 71.83775143 132.74882296 68.8828125 129.875 C66.46538144 127.46759978 64.26332927 124.90904018 62.0390625 122.32421875 C59.45245556 119.37588325 56.79130228 116.50117521 54.125 113.625 C52.5757543 111.94977967 51.02688113 110.27421548 49.47802734 108.59863281 C48.09650373 107.10437833 46.71429322 105.610759 45.33203125 104.1171875 C44.54183594 103.25351562 43.75164062 102.38984375 42.9375 101.5 C42.24527344 100.7471875 41.55304688 99.994375 40.83984375 99.21875 C37.18541116 94.81170603 35.47118083 91.8170109 36 86 C36.33 85.67 36.66 85.34 37 85 C43.80598369 85.05149546 46.79238267 87.93203186 51.4375 92.625 C52.76617447 93.91744083 54.09559262 95.20911761 55.42578125 96.5 C56.05049316 97.11488281 56.67520508 97.72976563 57.31884766 98.36328125 C59.19561008 100.19044002 61.13223112 101.92541034 63.125 103.625 C93.07927044 129.52094993 119.41556139 157.54314527 123.75 198.75 C124.08180513 204.43018785 124.09598611 210.12384243 124.125 215.8125 C124.12983398 216.68938477 124.13466797 217.56626953 124.13964844 218.46972656 C124.11942883 226.38136952 123.52975755 234.05363669 123 242 C106.5 242 90 242 73 242 C72.67 237.71 72.34 233.42 72 229 C69.30624801 219.72152093 65.70441151 213.01844619 58.296875 206.765625 C53.2645292 202.42087162 48.65249064 197.7042971 44 192.9609375 C40.05626267 188.9709845 36.00224502 185.2048515 31.75439453 181.54101562 C17.48174398 169.00428166 10.79048725 153.06567932 8.52807617 134.56567383 C8.40210902 133.56677281 8.27614187 132.5678718 8.14635754 131.53870106 C6.70676843 119.94262156 5.494297 108.32271814 4.30078125 96.69921875 C4.05856926 94.35706837 3.81623164 92.01493098 3.57377625 89.67280579 C3.07170089 84.8150474 2.572031 79.95704896 2.07397461 75.09887695 C1.43741493 68.89293244 0.79328328 62.68779908 0.14722919 56.48283672 C-0.35302222 51.66781009 -0.84858355 46.85230923 -1.34281349 42.03666115 C-1.57842753 39.74769366 -1.81564231 37.45889033 -2.05454063 35.17026329 C-2.3871848 31.97816442 -2.71330498 28.78546126 -3.0378418 25.5925293 C-3.13598679 24.66408707 -3.23413177 23.73564484 -3.33525085 22.77906799 C-5.03221832 5.83593262 -5.03221832 5.83593262 -2 1 C-1.34 0.67 -0.68 0.34 0 0 Z " fill="#4669FF" transform="translate(71,229)"/>
<path d="M0 0 C1.32825806 0.00845947 1.32825806 0.00845947 2.68334961 0.01708984 C15.91115576 0.26338138 27.5337565 5.25150452 37.28125 14.33984375 C47.64494401 25.42811806 52.73392831 39.26219574 52.37109375 54.39453125 C51.01947852 70.42082611 43.94220154 83.02030064 31.7109375 93.3515625 C20.04135895 102.05743856 7.41845378 104.1506023 -6.875 103.3125 C-21.56945395 101.05318323 -32.89809516 94.00767943 -42.1875 82.4375 C-49.95138035 71.35252636 -53.15558092 58.74259242 -51.875 45.3125 C-50.16712052 36.00649759 -47.45621801 27.98316898 -41.875 20.3125 C-41.42382812 19.67957031 -40.97265625 19.04664062 -40.5078125 18.39453125 C-30.64942007 5.77913077 -15.57842224 -0.10366856 0 0 Z M26.625 28.00390625 C25.93921875 28.64344238 25.2534375 29.28297852 24.546875 29.94189453 C23.34804688 31.11534424 23.34804688 31.11534424 22.125 32.3125 C21.64998047 32.77678406 21.17496094 33.24106812 20.68554688 33.71942139 C16.79853549 37.52980435 12.95933636 41.38673966 9.125 45.25 C7.95726626 46.42276009 6.78929926 47.59528798 5.62109375 48.76757812 C2.78636766 51.61321689 -0.04518824 54.46197453 -2.875 57.3125 C-6.50600088 55.79105585 -8.72392073 53.64311386 -11.4296875 50.8125 C-12.29207031 49.925625 -13.15445313 49.03875 -14.04296875 48.125 C-15.84390346 46.253899 -17.64080389 44.3789064 -19.43359375 42.5 C-20.29855469 41.613125 -21.16351563 40.72625 -22.0546875 39.8125 C-22.83569824 38.9978125 -23.61670898 38.183125 -24.42138672 37.34375 C-27.1977293 35.04532509 -29.36502706 34.08633373 -32.875 33.3125 C-37.2011628 34.84162079 -37.2011628 34.84162079 -39.875 38.3125 C-40.39903423 41.71304659 -40.59184841 44.19951053 -38.67697144 47.1725769 C-36.90491115 49.20985343 -35.05048307 51.10702691 -33.12109375 52.99609375 C-32.42742203 53.69646255 -31.73375031 54.39683136 -31.01905823 55.11842346 C-29.55051781 56.59171874 -28.07313429 58.05624516 -26.58764648 59.51245117 C-24.31985838 61.74276322 -22.09182214 64.00793627 -19.86523438 66.27929688 C-18.4319265 67.70797894 -16.99644862 69.13448797 -15.55859375 70.55859375 C-14.89476181 71.23659531 -14.23092987 71.91459686 -13.54698181 72.61314392 C-10.49638087 75.55859228 -8.56970088 77.14090815 -4.39477539 78.17211914 C0.73640555 76.91895357 3.46762236 73.99634707 7.125 70.3125 C7.75961151 69.70062836 8.39422302 69.08875671 9.04806519 68.45834351 C11.00998203 66.55866189 12.94303647 64.6332297 14.87109375 62.69921875 C15.56767593 62.00359329 16.26425812 61.30796783 16.98194885 60.59126282 C18.43767999 59.13620654 19.8921718 57.67990937 21.34545898 56.22241211 C23.57747268 53.98499105 25.81484135 51.75302323 28.05273438 49.52148438 C29.47167534 48.10188346 30.89030654 46.68197283 32.30859375 45.26171875 C32.97829697 44.59403976 33.64800018 43.92636078 34.33799744 43.2384491 C35.26014793 42.31157036 35.26014793 42.31157036 36.20092773 41.3659668 C36.74305405 40.82304489 37.28518036 40.28012299 37.84373474 39.7207489 C39.74642756 37.629484 40.12207712 36.33442159 40.5 33.5 C40.37855215 30.14022604 40.37855215 30.14022604 37.9375 27.4375 C33.66421295 24.20879423 30.5078982 24.35541597 26.625 28.00390625 Z " fill="#3281FF" transform="translate(255.875,65.6875)"/>
<path d="M0 0 C2.59902158 2.59902158 2.91857153 4.71745572 3.87939453 8.26635742 C4.14317902 9.23016327 4.14317902 9.23016327 4.41229248 10.21343994 C4.99280161 12.34228522 5.56317352 14.47369112 6.1328125 16.60546875 C6.5331755 18.08809009 6.9338864 19.57061753 7.33493042 21.05305481 C8.1749617 24.16477645 9.00983132 27.2778279 9.84130859 30.3918457 C10.90445999 34.3713649 11.98160897 38.34693538 13.06289864 42.32155895 C13.89441873 45.38521008 14.71768429 48.45103427 15.53860092 51.51754189 C15.93220912 52.98339376 16.32850955 54.44852558 16.72760391 55.9128933 C17.28669196 57.96865359 17.83438566 60.02713893 18.37939453 62.08666992 C18.69313019 63.25534103 19.00686584 64.42401215 19.33010864 65.62809753 C20.03336764 69.16795624 20.11884186 72.40038786 20 76 C18.21899414 76.61523438 18.21899414 76.61523438 16 77 C13.33308956 75.59667589 10.93256899 74.163477 8.4375 72.5 C7.73020752 72.04455811 7.02291504 71.58911621 6.29418945 71.11987305 C3.04513843 69.02369921 -0.17456596 66.88458362 -3.390625 64.73828125 C-4.35484375 64.10277344 -5.3190625 63.46726562 -6.3125 62.8125 C-7.15425781 62.24144531 -7.99601562 61.67039062 -8.86328125 61.08203125 C-9.56839844 60.72496094 -10.27351563 60.36789062 -11 60 C-14.18290824 60.70206604 -14.18290824 60.70206604 -15.50219727 63.46850586 C-16.01838623 64.53979736 -16.5345752 65.61108887 -17.06640625 66.71484375 C-17.63423828 67.87564453 -18.20207031 69.03644531 -18.78710938 70.23242188 C-19.37951363 71.46715669 -19.97130377 72.70218632 -20.5625 73.9375 C-21.72504442 76.34515322 -22.89476504 78.7490797 -24.06640625 81.15234375 C-24.58146729 82.22476318 -25.09652832 83.29718262 -25.62719727 84.40209961 C-27 87 -27 87 -29 89 C-31.625 89.125 -31.625 89.125 -34 89 C-36.60531762 82.43962783 -38.52717407 75.79828023 -40.35546875 68.984375 C-40.66196854 67.85098694 -40.96846832 66.71759888 -41.28425598 65.54986572 C-41.92740002 63.16691395 -42.56853422 60.78341891 -43.20776367 58.39941406 C-44.18851445 54.74622129 -45.17883931 51.09571409 -46.16992188 47.4453125 C-46.79484962 45.12515582 -47.41921816 42.80484843 -48.04296875 40.484375 C-48.3397905 39.39268005 -48.63661224 38.30098511 -48.94242859 37.1762085 C-49.34833977 35.65377533 -49.34833977 35.65377533 -49.76245117 34.10058594 C-50.00211105 33.20982361 -50.24177094 32.31906128 -50.48869324 31.40130615 C-51 29 -51 29 -51 25 C-49.90945313 25.29003906 -49.90945313 25.29003906 -48.796875 25.5859375 C-45.5395802 26.42949333 -42.2741265 27.22435272 -39 28 C-37.97132813 28.2475 -36.94265625 28.495 -35.8828125 28.75 C-27.27079168 30.53951082 -21.35829689 29.38472849 -13.6875 25.1875 C-5.47711365 18.50462739 -2.60657167 9.99185808 0 0 Z " fill="#2592FF" transform="translate(338,206)"/>
<path d="M0 0 C2.50876129 2.50876129 2.6006322 4.17484316 3.3125 7.625 C5.39922756 16.30412559 9.29493663 23.16368342 17 28 C26.69493455 32.54087533 35.99214825 31.00105604 45.80859375 27.62109375 C48 27 48 27 52 27 C49.14560704 39.55805712 45.95270901 52.01280918 42.6262207 64.45361328 C41.79915641 67.54995537 40.97852607 70.64795965 40.15820312 73.74609375 C39.63319431 75.71624762 39.10781806 77.68630362 38.58203125 79.65625 C38.3372554 80.58207886 38.09247955 81.50790771 37.84028625 82.46179199 C37.61302353 83.30777954 37.3857608 84.15376709 37.15161133 85.02539062 C36.95271805 85.7713147 36.75382477 86.51723877 36.54890442 87.2857666 C36 89 36 89 35 90 C32.75 90.5625 32.75 90.5625 30 90 C24.97743315 83.89035135 21.92413764 75.90384117 18.57421875 68.80664062 C18.15527344 67.94361328 17.73632812 67.08058594 17.3046875 66.19140625 C16.93327637 65.40967041 16.56186523 64.62793457 16.17919922 63.82250977 C15.05691569 61.67190704 15.05691569 61.67190704 12 61 C9.94443192 61.897254 9.94443192 61.897254 7.83203125 63.3515625 C7.02056641 63.87363281 6.20910156 64.39570313 5.37304688 64.93359375 C4.10557617 65.77083984 4.10557617 65.77083984 2.8125 66.625 C1.15241054 67.70062393 -0.50774508 68.77614575 -2.16796875 69.8515625 C-4.54857085 71.39443133 -6.9179272 72.94362712 -9.25634766 74.54980469 C-9.95163574 75.01547852 -10.64692383 75.48115234 -11.36328125 75.9609375 C-11.97083252 76.37907715 -12.57838379 76.7972168 -13.2043457 77.22802734 C-15.5036105 78.21650801 -16.68663387 77.81880608 -19 77 C-19.16541538 72.03669961 -18.66405089 67.88850597 -17.36352539 63.10253906 C-17.18956741 62.45284653 -17.01560944 61.80315399 -16.83638 61.1337738 C-16.26514711 59.00870266 -15.68156732 56.88724405 -15.09765625 54.765625 C-14.69574508 53.28086074 -14.29458806 51.79589215 -13.89414978 50.31072998 C-12.84197764 46.41684911 -11.7791508 42.52595379 -10.71417236 38.63555908 C-9.63133995 34.67166429 -8.55953504 30.7047905 -7.48632812 26.73828125 C-5.91810188 20.95071346 -4.34722014 15.16387972 -2.76586914 9.37988281 C-2.28954796 7.63617401 -2.28954796 7.63617401 -1.80360413 5.85723877 C-1.25049971 3.8906593 -0.64601543 1.93804628 0 0 Z " fill="#3E73FF" transform="translate(173,205)"/>
<path d="M0 0 C2.46741056 -0.30266929 4.6857205 -0.40965226 7.15600586 -0.38818359 C7.8927504 -0.39344055 8.62949493 -0.39869751 9.38856506 -0.40411377 C11.83087186 -0.41734802 14.27252999 -0.40856309 16.71484375 -0.3984375 C18.40873846 -0.40045748 20.10263232 -0.40336828 21.79652405 -0.40713501 C25.35002913 -0.41156317 28.90330826 -0.40511243 32.45678711 -0.39111328 C37.01461528 -0.37403401 41.57191302 -0.38385129 46.12972164 -0.40183067 C49.62899274 -0.41266644 53.12813792 -0.40922292 56.6274128 -0.4014473 C58.30795924 -0.39944403 59.98851706 -0.40190899 61.66905022 -0.40888596 C64.017875 -0.41649575 66.36583901 -0.40490314 68.71459961 -0.38818359 C69.75969193 -0.39729263 69.75969193 -0.39729263 70.82589722 -0.40658569 C73.70071295 -0.36862866 75.56333757 -0.31571984 77.93206787 1.39694214 C79.3250677 3.48795454 79.37308273 4.8409289 79.36328125 7.34375 C79.36231445 8.59478516 79.36231445 8.59478516 79.36132812 9.87109375 C79.34521484 10.73863281 79.32910156 11.60617187 79.3125 12.5 C79.31572266 13.36753906 79.31894531 14.23507812 79.32226562 15.12890625 C79.26726394 21.59910409 79.26726394 21.59910409 77 25 C74.4978234 25.30257944 72.24138269 25.40961938 69.73632812 25.38818359 C68.98822372 25.39344055 68.24011932 25.39869751 67.46934509 25.40411377 C64.98976936 25.41734697 62.51083256 25.40856433 60.03125 25.3984375 C58.31253943 25.40045729 56.5938297 25.40336793 54.87512207 25.40713501 C51.27034356 25.41156285 47.66578781 25.40511264 44.06103516 25.39111328 C39.4336092 25.37402101 34.80670519 25.38385976 30.1792984 25.40183067 C26.62945604 25.41265618 23.07973802 25.40922788 19.52989197 25.4014473 C17.82339924 25.39944186 16.11689533 25.40191655 14.41041565 25.40888596 C12.02786227 25.41648036 9.64616152 25.40492544 7.26367188 25.38818359 C6.19916054 25.39729263 6.19916054 25.39729263 5.11314392 25.40658569 C3.15026855 25.38095093 3.15026855 25.38095093 0 25 C-2.06935577 21.89596635 -2.25517909 21.18099981 -2.265625 17.65625 C-2.26820313 16.82222656 -2.27078125 15.98820312 -2.2734375 15.12890625 C-2.26570313 14.26136719 -2.25796875 13.39382813 -2.25 12.5 C-2.25773437 11.63246094 -2.26546875 10.76492188 -2.2734375 9.87109375 C-2.26957031 8.62005859 -2.26957031 8.62005859 -2.265625 7.34375 C-2.26336914 6.58255859 -2.26111328 5.82136719 -2.25878906 5.03710938 C-2 3 -2 3 0 0 Z M7 8 C5.55569145 10.88861709 5.62311494 12.79647701 6 16 C8.45594125 19.32274404 9.9256644 20.77618008 14 21.625 C18.0743356 20.77618008 19.54405875 19.32274404 22 16 C22.75015195 12.95691709 22.75015195 12.95691709 22 10 C19.93104835 7.05572265 18.49090073 6.15667045 15.0625 5.0625 C11.40127319 4.98778109 9.8695326 5.78636056 7 8 Z " fill="#2097FF" transform="translate(304,487)"/>
<path d="M0 0 C1.09070549 -0.00788544 1.09070549 -0.00788544 2.20344543 -0.01593018 C4.60785379 -0.02913782 7.0116005 -0.0203898 9.41601562 -0.01025391 C11.08606086 -0.01227443 12.75610524 -0.01518569 14.42614746 -0.01895142 C17.92659911 -0.02337579 21.42682113 -0.01694018 24.92724609 -0.00292969 C29.41666694 0.0141624 33.90554977 0.00432181 38.39495087 -0.01364708 C41.84360821 -0.02448194 45.29213778 -0.02103998 48.74079895 -0.0132637 C50.39622562 -0.01126086 52.05166385 -0.01372391 53.70707703 -0.02070236 C56.01987488 -0.02831212 58.33179859 -0.01672029 60.64453125 0 C61.96118774 0.00238678 63.27784424 0.00477356 64.63439941 0.00723267 C67.82226562 0.38818359 67.82226562 0.38818359 69.74760437 1.78512573 C71.14930107 3.876018 71.19536561 5.22470525 71.18554688 7.73193359 C71.18458008 8.98296875 71.18458008 8.98296875 71.18359375 10.25927734 C71.16748047 11.12681641 71.15136719 11.99435547 71.13476562 12.88818359 C71.13798828 13.75572266 71.14121094 14.62326172 71.14453125 15.51708984 C71.08952957 21.98728768 71.08952957 21.98728768 68.82226562 25.38818359 C66.32008902 25.69076303 64.06364831 25.79780298 61.55859375 25.77636719 C60.81048935 25.78162415 60.06238495 25.7868811 59.29161072 25.79229736 C56.81203499 25.80553057 54.33309819 25.79674792 51.85351562 25.78662109 C50.13480506 25.78864088 48.41609532 25.79155152 46.6973877 25.7953186 C43.09260918 25.79974645 39.48805344 25.79329623 35.88330078 25.77929688 C31.25587483 25.76220461 26.62897081 25.77204335 22.00156403 25.79001427 C18.45172166 25.80083977 14.90200364 25.79741147 11.35215759 25.78963089 C9.64566486 25.78762546 7.93916095 25.79010014 6.23268127 25.79706955 C3.85012789 25.80466396 1.46842715 25.79310903 -0.9140625 25.77636719 C-1.97857384 25.78547623 -1.97857384 25.78547623 -3.06459045 25.79476929 C-5.02746582 25.76913452 -5.02746582 25.76913452 -8.17773438 25.38818359 C-10.95869342 21.21674503 -10.50843784 17.78855692 -10.49023438 12.88818359 C-10.50634766 12.02064453 -10.52246094 11.15310547 -10.5390625 10.25927734 C-10.53970703 9.42525391 -10.54035156 8.59123047 -10.54101562 7.73193359 C-10.54399658 6.97074219 -10.54697754 6.20955078 -10.55004883 5.42529297 C-9.49325799 -0.35691214 -5.04047784 0.00913717 0 0 Z M47.82226562 8.38818359 C46.37795708 11.27680069 46.44538057 13.18466061 46.82226562 16.38818359 C49.27820687 19.71092763 50.74793002 21.16436368 54.82226562 22.01318359 C58.89660123 21.16436368 60.36632438 19.71092763 62.82226562 16.38818359 C63.37380389 13.01001172 63.18360513 11.1746284 61.75976562 8.07568359 C57.19209071 4.09738609 52.32262029 4.81437254 47.82226562 8.38818359 Z " fill="#416FFF" transform="translate(139.177734375,486.61181640625)"/>
</svg>
